solid STL generated by MeshLab
  facet normal  1.000000e+00  0.000000e+00  0.000000e+00
    outer loop
      vertex   3.949500e-01  1.442660e+00  3.910000e-01
      vertex   3.949500e-01  1.103912e+00  3.910000e-01
      vertex   3.949500e-01  1.442660e+00  9.999974e-04
    endloop
  endfacet
  facet normal  1.000000e+00  0.000000e+00  0.000000e+00
    outer loop
      vertex   3.949500e-01  1.442660e+00  9.999974e-04
      vertex   3.949500e-01  1.103912e+00  3.910000e-01
      vertex   3.949500e-01  1.103912e+00  9.999974e-04
    endloop
  endfacet
  facet normal  0.000000e+00  1.000000e+00  0.000000e+00
    outer loop
      vertex   3.949500e-01  1.103912e+00  9.999974e-04
      vertex   3.949500e-01  1.103912e+00  3.910000e-01
      vertex   7.316200e-01  1.103912e+00  9.999974e-04
    endloop
  endfacet
  facet normal  0.000000e+00  1.000000e+00 -0.000000e+00
    outer loop
      vertex   7.316200e-01  1.103912e+00  9.999974e-04
      vertex   3.949500e-01  1.103912e+00  3.910000e-01
      vertex   7.316200e-01  1.103912e+00  3.910000e-01
    endloop
  endfacet
  facet normal -1.000000e+00  0.000000e+00  0.000000e+00
    outer loop
      vertex   7.316200e-01  4.033200e-01  9.999974e-04
      vertex   7.316200e-01  4.033200e-01  3.910000e-01
      vertex   7.316200e-01  7.413200e-01  9.999974e-04
    endloop
  endfacet
  facet normal -1.000000e+00  0.000000e+00  0.000000e+00
    outer loop
      vertex   7.316200e-01  7.413200e-01  9.999974e-04
      vertex   7.316200e-01  4.033200e-01  3.910000e-01
      vertex   7.316200e-01  7.413200e-01  3.910000e-01
    endloop
  endfacet
  facet normal  0.000000e+00 -1.000000e+00  0.000000e+00
    outer loop
      vertex   7.316200e-01  7.413200e-01  9.999974e-04
      vertex   7.316200e-01  7.413200e-01  3.910000e-01
      vertex   3.949500e-01  7.413200e-01  9.999974e-04
    endloop
  endfacet
  facet normal  0.000000e+00 -1.000000e+00  0.000000e+00
    outer loop
      vertex   3.949500e-01  7.413200e-01  9.999974e-04
      vertex   7.316200e-01  7.413200e-01  3.910000e-01
      vertex   3.949500e-01  7.413200e-01  3.910000e-01
    endloop
  endfacet
  facet normal  1.000000e+00  0.000000e+00 -0.000000e+00
    outer loop
      vertex   3.949500e-01  7.413200e-01  9.999974e-04
      vertex   3.949500e-01  7.413200e-01  3.910000e-01
      vertex   3.949500e-01  4.033200e-01  9.999974e-04
    endloop
  endfacet
  facet normal  1.000000e+00  0.000000e+00  0.000000e+00
    outer loop
      vertex   3.949500e-01  4.033200e-01  9.999974e-04
      vertex   3.949500e-01  7.413200e-01  3.910000e-01
      vertex   3.949500e-01  4.033200e-01  3.910000e-01
    endloop
  endfacet
  facet normal  1.000000e+00  0.000000e+00 -0.000000e+00
    outer loop
      vertex   4.562002e-02  7.413200e-01  9.999974e-04
      vertex   4.562002e-02  7.413200e-01  3.910000e-01
      vertex   4.562002e-02  4.033200e-01  9.999974e-04
    endloop
  endfacet
  facet normal  1.000000e+00  0.000000e+00  0.000000e+00
    outer loop
      vertex   4.562002e-02  4.033200e-01  9.999974e-04
      vertex   4.562002e-02  7.413200e-01  3.910000e-01
      vertex   4.562002e-02  4.033200e-01  3.910000e-01
    endloop
  endfacet
  facet normal  0.000000e+00  1.000000e+00  0.000000e+00
    outer loop
      vertex   4.562002e-02  4.033200e-01  9.999974e-04
      vertex   4.562002e-02  4.033200e-01  3.910000e-01
      vertex   3.822900e-01  4.033200e-01  9.999974e-04
    endloop
  endfacet
  facet normal  0.000000e+00  1.000000e+00 -0.000000e+00
    outer loop
      vertex   3.822900e-01  4.033200e-01  9.999974e-04
      vertex   4.562002e-02  4.033200e-01  3.910000e-01
      vertex   3.822900e-01  4.033200e-01  3.910000e-01
    endloop
  endfacet
  facet normal -1.000000e+00  0.000000e+00  0.000000e+00
    outer loop
      vertex   3.822900e-01  4.033200e-01  3.910000e-01
      vertex   3.822900e-01  7.413200e-01  3.910000e-01
      vertex   3.822900e-01  4.033200e-01  9.999974e-04
    endloop
  endfacet
  facet normal -1.000000e+00  0.000000e+00  0.000000e+00
    outer loop
      vertex   3.822900e-01  4.033200e-01  9.999974e-04
      vertex   3.822900e-01  7.413200e-01  3.910000e-01
      vertex   3.822900e-01  7.413200e-01  9.999974e-04
    endloop
  endfacet
  facet normal -1.000000e+00  0.000000e+00  0.000000e+00
    outer loop
      vertex   7.316200e-01  5.265996e-02  9.999974e-04
      vertex   7.316200e-01  5.265996e-02  3.910000e-01
      vertex   7.316200e-01  3.906600e-01  9.999974e-04
    endloop
  endfacet
  facet normal -1.000000e+00  0.000000e+00  0.000000e+00
    outer loop
      vertex   7.316200e-01  3.906600e-01  9.999974e-04
      vertex   7.316200e-01  5.265996e-02  3.910000e-01
      vertex   7.316200e-01  3.906600e-01  3.910000e-01
    endloop
  endfacet
  facet normal  0.000000e+00 -1.000000e+00  0.000000e+00
    outer loop
      vertex   7.316200e-01  3.906600e-01  9.999974e-04
      vertex   7.316200e-01  3.906600e-01  3.910000e-01
      vertex   3.949500e-01  3.906600e-01  9.999974e-04
    endloop
  endfacet
  facet normal  0.000000e+00 -1.000000e+00  0.000000e+00
    outer loop
      vertex   3.949500e-01  3.906600e-01  9.999974e-04
      vertex   7.316200e-01  3.906600e-01  3.910000e-01
      vertex   3.949500e-01  3.906600e-01  3.910000e-01
    endloop
  endfacet
  facet normal  1.000000e+00  0.000000e+00 -0.000000e+00
    outer loop
      vertex   3.949500e-01  3.906600e-01  9.999974e-04
      vertex   3.949500e-01  3.906600e-01  3.910000e-01
      vertex   3.949500e-01  5.265996e-02  9.999974e-04
    endloop
  endfacet
  facet normal  1.000000e+00  0.000000e+00  0.000000e+00
    outer loop
      vertex   3.949500e-01  5.265996e-02  9.999974e-04
      vertex   3.949500e-01  3.906600e-01  3.910000e-01
      vertex   3.949500e-01  5.265996e-02  3.910000e-01
    endloop
  endfacet
  facet normal -1.000000e+00  0.000000e+00  0.000000e+00
    outer loop
      vertex   3.822900e-01  5.265996e-02  3.910000e-01
      vertex   3.822900e-01  3.906600e-01  3.910000e-01
      vertex   3.822900e-01  5.265996e-02  9.999974e-04
    endloop
  endfacet
  facet normal -1.000000e+00  0.000000e+00  0.000000e+00
    outer loop
      vertex   3.822900e-01  5.265996e-02  9.999974e-04
      vertex   3.822900e-01  3.906600e-01  3.910000e-01
      vertex   3.822900e-01  3.906600e-01  9.999974e-04
    endloop
  endfacet
  facet normal -0.000000e+00 -1.000000e+00 -0.000000e+00
    outer loop
      vertex   3.822900e-01  3.906600e-01  3.910000e-01
      vertex   4.562002e-02  3.906600e-01  3.910000e-01
      vertex   3.822900e-01  3.906600e-01  9.999974e-04
    endloop
  endfacet
  facet normal  0.000000e+00 -1.000000e+00  0.000000e+00
    outer loop
      vertex   3.822900e-01  3.906600e-01  9.999974e-04
      vertex   4.562002e-02  3.906600e-01  3.910000e-01
      vertex   4.562002e-02  3.906600e-01  9.999974e-04
    endloop
  endfacet
  facet normal  1.000000e+00  0.000000e+00 -0.000000e+00
    outer loop
      vertex   4.562002e-02  3.906600e-01  9.999974e-04
      vertex   4.562002e-02  3.906600e-01  3.910000e-01
      vertex   4.562002e-02  5.265996e-02  9.999974e-04
    endloop
  endfacet
  facet normal  1.000000e+00  0.000000e+00  0.000000e+00
    outer loop
      vertex   4.562002e-02  5.265996e-02  9.999974e-04
      vertex   4.562002e-02  3.906600e-01  3.910000e-01
      vertex   4.562002e-02  5.265996e-02  3.910000e-01
    endloop
  endfacet
  facet normal -1.000000e+00  0.000000e+00  0.000000e+00
    outer loop
      vertex   7.316200e-01  7.539899e-01  9.999974e-04
      vertex   7.316200e-01  7.539899e-01  3.910000e-01
      vertex   7.316200e-01  1.091252e+00  9.999974e-04
    endloop
  endfacet
  facet normal -1.000000e+00  0.000000e+00  0.000000e+00
    outer loop
      vertex   7.316200e-01  1.091252e+00  9.999974e-04
      vertex   7.316200e-01  7.539899e-01  3.910000e-01
      vertex   7.316200e-01  1.091252e+00  3.910000e-01
    endloop
  endfacet
  facet normal  0.000000e+00 -1.000000e+00  0.000000e+00
    outer loop
      vertex   7.316200e-01  1.091252e+00  9.999974e-04
      vertex   7.316200e-01  1.091252e+00  3.910000e-01
      vertex   3.949500e-01  1.091252e+00  9.999974e-04
    endloop
  endfacet
  facet normal  0.000000e+00 -1.000000e+00  0.000000e+00
    outer loop
      vertex   3.949500e-01  1.091252e+00  9.999974e-04
      vertex   7.316200e-01  1.091252e+00  3.910000e-01
      vertex   3.949500e-01  1.091252e+00  3.910000e-01
    endloop
  endfacet
  facet normal  1.000000e+00  0.000000e+00  0.000000e+00
    outer loop
      vertex   3.949500e-01  1.091252e+00  3.910000e-01
      vertex   3.949500e-01  7.539899e-01  3.910000e-01
      vertex   3.949500e-01  1.091252e+00  9.999974e-04
    endloop
  endfacet
  facet normal  1.000000e+00  0.000000e+00  0.000000e+00
    outer loop
      vertex   3.949500e-01  1.091252e+00  9.999974e-04
      vertex   3.949500e-01  7.539899e-01  3.910000e-01
      vertex   3.949500e-01  7.539899e-01  9.999974e-04
    endloop
  endfacet
  facet normal -1.000000e+00  0.000000e+00  0.000000e+00
    outer loop
      vertex   3.822900e-01  1.103912e+00  9.999974e-04
      vertex   3.822900e-01  1.103912e+00  3.910000e-01
      vertex   3.822900e-01  1.442660e+00  9.999974e-04
    endloop
  endfacet
  facet normal -1.000000e+00  0.000000e+00  0.000000e+00
    outer loop
      vertex   3.822900e-01  1.442660e+00  9.999974e-04
      vertex   3.822900e-01  1.103912e+00  3.910000e-01
      vertex   3.822900e-01  1.442660e+00  3.910000e-01
    endloop
  endfacet
  facet normal  1.000000e+00  0.000000e+00  0.000000e+00
    outer loop
      vertex   4.562002e-02  1.442660e+00  3.910000e-01
      vertex   4.562002e-02  1.103912e+00  3.910000e-01
      vertex   4.562002e-02  1.442660e+00  9.999974e-04
    endloop
  endfacet
  facet normal  1.000000e+00  0.000000e+00  0.000000e+00
    outer loop
      vertex   4.562002e-02  1.442660e+00  9.999974e-04
      vertex   4.562002e-02  1.103912e+00  3.910000e-01
      vertex   4.562002e-02  1.103912e+00  9.999974e-04
    endloop
  endfacet
  facet normal  0.000000e+00 -1.000000e+00  0.000000e+00
    outer loop
      vertex   3.822900e-01  1.091252e+00  9.999974e-04
      vertex   3.822900e-01  1.091252e+00  3.910000e-01
      vertex   4.562002e-02  1.091252e+00  9.999974e-04
    endloop
  endfacet
  facet normal  0.000000e+00 -1.000000e+00  0.000000e+00
    outer loop
      vertex   4.562002e-02  1.091252e+00  9.999974e-04
      vertex   3.822900e-01  1.091252e+00  3.910000e-01
      vertex   4.562002e-02  1.091252e+00  3.910000e-01
    endloop
  endfacet
  facet normal  1.000000e+00  0.000000e+00  0.000000e+00
    outer loop
      vertex   4.562002e-02  1.091252e+00  3.910000e-01
      vertex   4.562002e-02  7.539899e-01  3.910000e-01
      vertex   4.562002e-02  1.091252e+00  9.999974e-04
    endloop
  endfacet
  facet normal  1.000000e+00  0.000000e+00  0.000000e+00
    outer loop
      vertex   4.562002e-02  1.091252e+00  9.999974e-04
      vertex   4.562002e-02  7.539899e-01  3.910000e-01
      vertex   4.562002e-02  7.539899e-01  9.999974e-04
    endloop
  endfacet
  facet normal -0.000000e+00  1.000000e+00  0.000000e+00
    outer loop
      vertex   4.562002e-02  7.539899e-01  3.910000e-01
      vertex   3.822900e-01  7.539899e-01  3.910000e-01
      vertex   4.562002e-02  7.539899e-01  9.999974e-04
    endloop
  endfacet
  facet normal  0.000000e+00  1.000000e+00  0.000000e+00
    outer loop
      vertex   4.562002e-02  7.539899e-01  9.999974e-04
      vertex   3.822900e-01  7.539899e-01  3.910000e-01
      vertex   3.822900e-01  7.539899e-01  9.999974e-04
    endloop
  endfacet
  facet normal  0.000000e+00  1.000000e+00  0.000000e+00
    outer loop
      vertex   3.949500e-01  4.033200e-01  9.999974e-04
      vertex   3.949500e-01  4.033200e-01  3.910000e-01
      vertex   7.316200e-01  4.033200e-01  9.999974e-04
    endloop
  endfacet
  facet normal  0.000000e+00  1.000000e+00 -0.000000e+00
    outer loop
      vertex   7.316200e-01  4.033200e-01  9.999974e-04
      vertex   3.949500e-01  4.033200e-01  3.910000e-01
      vertex   7.316200e-01  4.033200e-01  3.910000e-01
    endloop
  endfacet
  facet normal -0.000000e+00 -1.000000e+00 -0.000000e+00
    outer loop
      vertex   3.822900e-01  7.413200e-01  3.910000e-01
      vertex   4.562002e-02  7.413200e-01  3.910000e-01
      vertex   3.822900e-01  7.413200e-01  9.999974e-04
    endloop
  endfacet
  facet normal  0.000000e+00 -1.000000e+00  0.000000e+00
    outer loop
      vertex   3.822900e-01  7.413200e-01  9.999974e-04
      vertex   4.562002e-02  7.413200e-01  3.910000e-01
      vertex   4.562002e-02  7.413200e-01  9.999974e-04
    endloop
  endfacet
  facet normal -0.000000e+00  1.000000e+00  0.000000e+00
    outer loop
      vertex   3.949500e-01  7.539899e-01  3.910000e-01
      vertex   7.316200e-01  7.539899e-01  3.910000e-01
      vertex   3.949500e-01  7.539899e-01  9.999974e-04
    endloop
  endfacet
  facet normal  0.000000e+00  1.000000e+00  0.000000e+00
    outer loop
      vertex   3.949500e-01  7.539899e-01  9.999974e-04
      vertex   7.316200e-01  7.539899e-01  3.910000e-01
      vertex   7.316200e-01  7.539899e-01  9.999974e-04
    endloop
  endfacet
  facet normal -0.000000e+00  1.000000e+00  0.000000e+00
    outer loop
      vertex   4.562002e-02  1.103912e+00  3.910000e-01
      vertex   3.822900e-01  1.103912e+00  3.910000e-01
      vertex   4.562002e-02  1.103912e+00  9.999974e-04
    endloop
  endfacet
  facet normal  0.000000e+00  1.000000e+00  0.000000e+00
    outer loop
      vertex   4.562002e-02  1.103912e+00  9.999974e-04
      vertex   3.822900e-01  1.103912e+00  3.910000e-01
      vertex   3.822900e-01  1.103912e+00  9.999974e-04
    endloop
  endfacet
  facet normal -1.000000e+00  0.000000e+00  0.000000e+00
    outer loop
      vertex   3.822900e-01  7.539899e-01  9.999974e-04
      vertex   3.822900e-01  7.539899e-01  3.910000e-01
      vertex   3.822900e-01  1.091252e+00  9.999974e-04
    endloop
  endfacet
  facet normal -1.000000e+00  0.000000e+00  0.000000e+00
    outer loop
      vertex   3.822900e-01  1.091252e+00  9.999974e-04
      vertex   3.822900e-01  7.539899e-01  3.910000e-01
      vertex   3.822900e-01  1.091252e+00  3.910000e-01
    endloop
  endfacet
  facet normal -1.000000e+00  0.000000e+00  0.000000e+00
    outer loop
      vertex   7.316200e-01  1.103912e+00  9.999974e-04
      vertex   7.316200e-01  1.103912e+00  3.910000e-01
      vertex   7.316200e-01  1.442660e+00  9.999974e-04
    endloop
  endfacet
  facet normal -1.000000e+00  0.000000e+00  0.000000e+00
    outer loop
      vertex   7.316200e-01  1.442660e+00  9.999974e-04
      vertex   7.316200e-01  1.103912e+00  3.910000e-01
      vertex   7.316200e-01  1.442660e+00  3.910000e-01
    endloop
  endfacet
  facet normal  0.000000e+00  0.000000e+00 -1.000000e+00
    outer loop
      vertex   7.696200e-01  1.465996e-02  1.025200e-08
      vertex   7.619977e-03  1.465996e-02  1.025200e-08
      vertex   7.696200e-01  5.265996e-02  1.025200e-08
    endloop
  endfacet
  facet normal -0.000000e+00  0.000000e+00 -1.000000e+00
    outer loop
      vertex   7.696200e-01  5.265996e-02  1.025200e-08
      vertex   7.619977e-03  1.465996e-02  1.025200e-08
      vertex   7.619977e-03  5.265996e-02  1.025200e-08
    endloop
  endfacet
  facet normal  0.000000e+00 -0.000000e+00  1.000000e+00
    outer loop
      vertex   7.696200e-01  1.442660e+00  3.920000e-01
      vertex   7.696200e-01  1.480660e+00  3.920000e-01
      vertex   7.619977e-03  1.442660e+00  3.920000e-01
    endloop
  endfacet
  facet normal  0.000000e+00  0.000000e+00  1.000000e+00
    outer loop
      vertex   7.619977e-03  1.442660e+00  3.920000e-01
      vertex   7.696200e-01  1.480660e+00  3.920000e-01
      vertex   7.619977e-03  1.480660e+00  3.920000e-01
    endloop
  endfacet
  facet normal  0.000000e+00 -1.000000e+00  0.000000e+00
    outer loop
      vertex   7.316200e-01  1.442660e+00  3.910000e-01
      vertex   7.696200e-01  1.442660e+00  3.910000e-01
      vertex   7.696200e-01  1.442660e+00  3.920000e-01
    endloop
  endfacet
  facet normal  0.000000e+00 -1.000000e+00  0.000000e+00
    outer loop
      vertex   7.316200e-01  1.442660e+00  9.999974e-04
      vertex   3.949500e-01  1.442660e+00  3.910000e-01
      vertex   3.949500e-01  1.442660e+00  9.999974e-04
    endloop
  endfacet
  facet normal -0.000000e+00 -1.000000e+00  0.000000e+00
    outer loop
      vertex   4.562002e-02  1.442660e+00  9.999974e-04
      vertex   7.619977e-03  1.442660e+00  9.999974e-04
      vertex   7.619977e-03  1.442660e+00  1.025200e-08
    endloop
  endfacet
  facet normal  0.000000e+00 -1.000000e+00  0.000000e+00
    outer loop
      vertex   4.562002e-02  1.442660e+00  3.910000e-01
      vertex   3.822900e-01  1.442660e+00  9.999974e-04
      vertex   3.822900e-01  1.442660e+00  3.910000e-01
    endloop
  endfacet
  facet normal  0.000000e+00 -1.000000e+00  0.000000e+00
    outer loop
      vertex   7.619977e-03  1.442660e+00  3.910000e-01
      vertex   4.562002e-02  1.442660e+00  3.910000e-01
      vertex   7.619977e-03  1.442660e+00  3.920000e-01
    endloop
  endfacet
  facet normal  0.000000e+00 -1.000000e+00  0.000000e+00
    outer loop
      vertex   7.619977e-03  1.442660e+00  3.920000e-01
      vertex   4.562002e-02  1.442660e+00  3.910000e-01
      vertex   3.822900e-01  1.442660e+00  3.910000e-01
    endloop
  endfacet
  facet normal  0.000000e+00 -1.000000e+00  0.000000e+00
    outer loop
      vertex   7.619977e-03  1.442660e+00  3.920000e-01
      vertex   3.822900e-01  1.442660e+00  3.910000e-01
      vertex   7.696200e-01  1.442660e+00  3.920000e-01
    endloop
  endfacet
  facet normal  0.000000e+00 -1.000000e+00  0.000000e+00
    outer loop
      vertex   7.696200e-01  1.442660e+00  3.920000e-01
      vertex   3.822900e-01  1.442660e+00  3.910000e-01
      vertex   3.949500e-01  1.442660e+00  3.910000e-01
    endloop
  endfacet
  facet normal  0.000000e+00 -1.000000e+00  0.000000e+00
    outer loop
      vertex   7.696200e-01  1.442660e+00  3.920000e-01
      vertex   3.949500e-01  1.442660e+00  3.910000e-01
      vertex   7.316200e-01  1.442660e+00  3.910000e-01
    endloop
  endfacet
  facet normal -0.000000e+00 -1.000000e+00 -0.000000e+00
    outer loop
      vertex   7.316200e-01  1.442660e+00  3.910000e-01
      vertex   3.949500e-01  1.442660e+00  3.910000e-01
      vertex   7.316200e-01  1.442660e+00  9.999974e-04
    endloop
  endfacet
  facet normal  0.000000e+00 -1.000000e+00  0.000000e+00
    outer loop
      vertex   4.562002e-02  1.442660e+00  3.910000e-01
      vertex   4.562002e-02  1.442660e+00  9.999974e-04
      vertex   3.822900e-01  1.442660e+00  9.999974e-04
    endloop
  endfacet
  facet normal -0.000000e+00 -1.000000e+00  0.000000e+00
    outer loop
      vertex   3.822900e-01  1.442660e+00  9.999974e-04
      vertex   4.562002e-02  1.442660e+00  9.999974e-04
      vertex   7.619977e-03  1.442660e+00  1.025200e-08
    endloop
  endfacet
  facet normal  0.000000e+00 -1.000000e+00 -0.000000e+00
    outer loop
      vertex   3.822900e-01  1.442660e+00  9.999974e-04
      vertex   7.619977e-03  1.442660e+00  1.025200e-08
      vertex   3.949500e-01  1.442660e+00  9.999974e-04
    endloop
  endfacet
  facet normal  0.000000e+00 -1.000000e+00 -0.000000e+00
    outer loop
      vertex   3.949500e-01  1.442660e+00  9.999974e-04
      vertex   7.619977e-03  1.442660e+00  1.025200e-08
      vertex   7.696200e-01  1.442660e+00  1.025200e-08
    endloop
  endfacet
  facet normal  0.000000e+00 -1.000000e+00  0.000000e+00
    outer loop
      vertex   3.949500e-01  1.442660e+00  9.999974e-04
      vertex   7.696200e-01  1.442660e+00  1.025200e-08
      vertex   7.316200e-01  1.442660e+00  9.999974e-04
    endloop
  endfacet
  facet normal  0.000000e+00 -1.000000e+00  0.000000e+00
    outer loop
      vertex   7.316200e-01  1.442660e+00  9.999974e-04
      vertex   7.696200e-01  1.442660e+00  1.025200e-08
      vertex   7.696200e-01  1.442660e+00  9.999974e-04
    endloop
  endfacet
  facet normal  0.000000e+00 -1.000000e+00  0.000000e+00
    outer loop
      vertex   7.619977e-03  1.465996e-02  1.025200e-08
      vertex   7.696200e-01  1.465996e-02  1.025200e-08
      vertex   7.619977e-03  1.465996e-02  3.920000e-01
    endloop
  endfacet
  facet normal  0.000000e+00 -1.000000e+00  0.000000e+00
    outer loop
      vertex   7.619977e-03  1.465996e-02  3.920000e-01
      vertex   7.696200e-01  1.465996e-02  1.025200e-08
      vertex   7.696200e-01  1.465996e-02  3.920000e-01
    endloop
  endfacet
  facet normal -1.000000e+00  0.000000e+00 -0.000000e+00
    outer loop
      vertex   7.619977e-03  5.265996e-02  9.999974e-04
      vertex   7.619977e-03  5.265996e-02  1.025200e-08
      vertex   7.619977e-03  1.465996e-02  1.025200e-08
    endloop
  endfacet
  facet normal -1.000000e+00  0.000000e+00  0.000000e+00
    outer loop
      vertex   7.619977e-03  1.442660e+00  3.910000e-01
      vertex   7.619977e-03  1.442660e+00  3.920000e-01
      vertex   7.619977e-03  1.480660e+00  3.920000e-01
    endloop
  endfacet
  facet normal -1.000000e+00  0.000000e+00  0.000000e+00
    outer loop
      vertex   7.619977e-03  1.465996e-02  3.920000e-01
      vertex   7.619977e-03  5.265996e-02  3.920000e-01
      vertex   7.619977e-03  5.265996e-02  3.910000e-01
    endloop
  endfacet
  facet normal -1.000000e+00  0.000000e+00  0.000000e+00
    outer loop
      vertex   7.619977e-03  1.480660e+00  1.025200e-08
      vertex   7.619977e-03  1.442660e+00  1.025200e-08
      vertex   7.619977e-03  1.442660e+00  9.999974e-04
    endloop
  endfacet
  facet normal -1.000000e+00  0.000000e+00  0.000000e+00
    outer loop
      vertex   7.619977e-03  1.465996e-02  1.025200e-08
      vertex   7.619977e-03  1.465996e-02  3.920000e-01
      vertex   7.619977e-03  5.265996e-02  9.999974e-04
    endloop
  endfacet
  facet normal -1.000000e+00  0.000000e+00  0.000000e+00
    outer loop
      vertex   7.619977e-03  5.265996e-02  9.999974e-04
      vertex   7.619977e-03  1.465996e-02  3.920000e-01
      vertex   7.619977e-03  5.265996e-02  3.910000e-01
    endloop
  endfacet
  facet normal -1.000000e+00  0.000000e+00  0.000000e+00
    outer loop
      vertex   7.619977e-03  5.265996e-02  9.999974e-04
      vertex   7.619977e-03  5.265996e-02  3.910000e-01
      vertex   7.619977e-03  1.442660e+00  9.999974e-04
    endloop
  endfacet
  facet normal -1.000000e+00  0.000000e+00  0.000000e+00
    outer loop
      vertex   7.619977e-03  1.442660e+00  9.999974e-04
      vertex   7.619977e-03  5.265996e-02  3.910000e-01
      vertex   7.619977e-03  1.442660e+00  3.910000e-01
    endloop
  endfacet
  facet normal -1.000000e+00  0.000000e+00  0.000000e+00
    outer loop
      vertex   7.619977e-03  1.442660e+00  9.999974e-04
      vertex   7.619977e-03  1.442660e+00  3.910000e-01
      vertex   7.619977e-03  1.480660e+00  1.025200e-08
    endloop
  endfacet
  facet normal -1.000000e+00  0.000000e+00  0.000000e+00
    outer loop
      vertex   7.619977e-03  1.480660e+00  1.025200e-08
      vertex   7.619977e-03  1.442660e+00  3.910000e-01
      vertex   7.619977e-03  1.480660e+00  3.920000e-01
    endloop
  endfacet
  facet normal  0.000000e+00  1.000000e+00 -0.000000e+00
    outer loop
      vertex   7.696200e-01  1.480660e+00  1.025200e-08
      vertex   7.619977e-03  1.480660e+00  1.025200e-08
      vertex   7.696200e-01  1.480660e+00  3.920000e-01
    endloop
  endfacet
  facet normal  0.000000e+00  1.000000e+00  0.000000e+00
    outer loop
      vertex   7.696200e-01  1.480660e+00  3.920000e-01
      vertex   7.619977e-03  1.480660e+00  1.025200e-08
      vertex   7.619977e-03  1.480660e+00  3.920000e-01
    endloop
  endfacet
  facet normal  1.000000e+00  0.000000e+00  0.000000e+00
    outer loop
      vertex   7.696200e-01  1.442660e+00  9.999974e-04
      vertex   7.696200e-01  1.442660e+00  1.025200e-08
      vertex   7.696200e-01  1.480660e+00  1.025200e-08
    endloop
  endfacet
  facet normal  1.000000e+00  0.000000e+00  0.000000e+00
    outer loop
      vertex   7.696200e-01  1.465996e-02  3.920000e-01
      vertex   7.696200e-01  1.465996e-02  1.025200e-08
      vertex   7.696200e-01  5.265996e-02  9.999974e-04
    endloop
  endfacet
  facet normal  1.000000e+00  0.000000e+00  0.000000e+00
    outer loop
      vertex   7.696200e-01  5.265996e-02  9.999974e-04
      vertex   7.696200e-01  1.465996e-02  1.025200e-08
      vertex   7.696200e-01  5.265996e-02  1.025200e-08
    endloop
  endfacet
  facet normal  1.000000e+00  0.000000e+00  0.000000e+00
    outer loop
      vertex   7.696200e-01  1.480660e+00  3.920000e-01
      vertex   7.696200e-01  1.442660e+00  3.920000e-01
      vertex   7.696200e-01  1.442660e+00  3.910000e-01
    endloop
  endfacet
  facet normal  1.000000e+00  0.000000e+00  0.000000e+00
    outer loop
      vertex   7.696200e-01  5.265996e-02  3.920000e-01
      vertex   7.696200e-01  1.465996e-02  3.920000e-01
      vertex   7.696200e-01  5.265996e-02  3.910000e-01
    endloop
  endfacet
  facet normal  1.000000e+00  0.000000e+00  0.000000e+00
    outer loop
      vertex   7.696200e-01  5.265996e-02  3.910000e-01
      vertex   7.696200e-01  1.465996e-02  3.920000e-01
      vertex   7.696200e-01  5.265996e-02  9.999974e-04
    endloop
  endfacet
  facet normal  1.000000e+00 -0.000000e+00  0.000000e+00
    outer loop
      vertex   7.696200e-01  5.265996e-02  3.910000e-01
      vertex   7.696200e-01  5.265996e-02  9.999974e-04
      vertex   7.696200e-01  1.442660e+00  3.910000e-01
    endloop
  endfacet
  facet normal  1.000000e+00  0.000000e+00  0.000000e+00
    outer loop
      vertex   7.696200e-01  1.442660e+00  3.910000e-01
      vertex   7.696200e-01  5.265996e-02  9.999974e-04
      vertex   7.696200e-01  1.442660e+00  9.999974e-04
    endloop
  endfacet
  facet normal  1.000000e+00 -0.000000e+00  0.000000e+00
    outer loop
      vertex   7.696200e-01  1.442660e+00  3.910000e-01
      vertex   7.696200e-01  1.442660e+00  9.999974e-04
      vertex   7.696200e-01  1.480660e+00  3.920000e-01
    endloop
  endfacet
  facet normal  1.000000e+00  0.000000e+00  0.000000e+00
    outer loop
      vertex   7.696200e-01  1.480660e+00  3.920000e-01
      vertex   7.696200e-01  1.442660e+00  9.999974e-04
      vertex   7.696200e-01  1.480660e+00  1.025200e-08
    endloop
  endfacet
  facet normal  0.000000e+00  1.000000e+00  0.000000e+00
    outer loop
      vertex   4.562002e-02  5.265996e-02  3.910000e-01
      vertex   7.619977e-03  5.265996e-02  3.910000e-01
      vertex   7.619977e-03  5.265996e-02  3.920000e-01
    endloop
  endfacet
  facet normal  0.000000e+00  1.000000e+00  0.000000e+00
    outer loop
      vertex   7.619977e-03  5.265996e-02  1.025200e-08
      vertex   7.619977e-03  5.265996e-02  9.999974e-04
      vertex   4.562002e-02  5.265996e-02  9.999974e-04
    endloop
  endfacet
  facet normal  0.000000e+00  1.000000e+00  0.000000e+00
    outer loop
      vertex   7.696200e-01  5.265996e-02  3.920000e-01
      vertex   7.696200e-01  5.265996e-02  3.910000e-01
      vertex   7.316200e-01  5.265996e-02  3.910000e-01
    endloop
  endfacet
  facet normal  0.000000e+00  1.000000e+00  0.000000e+00
    outer loop
      vertex   3.822900e-01  5.265996e-02  3.910000e-01
      vertex   7.696200e-01  5.265996e-02  3.920000e-01
      vertex   3.949500e-01  5.265996e-02  3.910000e-01
    endloop
  endfacet
  facet normal  0.000000e+00  1.000000e+00  0.000000e+00
    outer loop
      vertex   3.949500e-01  5.265996e-02  3.910000e-01
      vertex   7.696200e-01  5.265996e-02  3.920000e-01
      vertex   7.316200e-01  5.265996e-02  3.910000e-01
    endloop
  endfacet
  facet normal -0.000000e+00  1.000000e+00  0.000000e+00
    outer loop
      vertex   3.949500e-01  5.265996e-02  3.910000e-01
      vertex   7.316200e-01  5.265996e-02  3.910000e-01
      vertex   3.949500e-01  5.265996e-02  9.999974e-04
    endloop
  endfacet
  facet normal  0.000000e+00  1.000000e+00  0.000000e+00
    outer loop
      vertex   3.949500e-01  5.265996e-02  9.999974e-04
      vertex   7.316200e-01  5.265996e-02  3.910000e-01
      vertex   7.316200e-01  5.265996e-02  9.999974e-04
    endloop
  endfacet
  facet normal -0.000000e+00  1.000000e+00  0.000000e+00
    outer loop
      vertex   7.619977e-03  5.265996e-02  3.920000e-01
      vertex   7.696200e-01  5.265996e-02  3.920000e-01
      vertex   4.562002e-02  5.265996e-02  3.910000e-01
    endloop
  endfacet
  facet normal  0.000000e+00  1.000000e+00  0.000000e+00
    outer loop
      vertex   4.562002e-02  5.265996e-02  3.910000e-01
      vertex   7.696200e-01  5.265996e-02  3.920000e-01
      vertex   3.822900e-01  5.265996e-02  3.910000e-01
    endloop
  endfacet
  facet normal -0.000000e+00  1.000000e+00  0.000000e+00
    outer loop
      vertex   4.562002e-02  5.265996e-02  3.910000e-01
      vertex   3.822900e-01  5.265996e-02  3.910000e-01
      vertex   4.562002e-02  5.265996e-02  9.999974e-04
    endloop
  endfacet
  facet normal  0.000000e+00  1.000000e+00  0.000000e+00
    outer loop
      vertex   4.562002e-02  5.265996e-02  9.999974e-04
      vertex   3.822900e-01  5.265996e-02  3.910000e-01
      vertex   3.822900e-01  5.265996e-02  9.999974e-04
    endloop
  endfacet
  facet normal -0.000000e+00  1.000000e+00  0.000000e+00
    outer loop
      vertex   4.562002e-02  5.265996e-02  9.999974e-04
      vertex   3.822900e-01  5.265996e-02  9.999974e-04
      vertex   7.619977e-03  5.265996e-02  1.025200e-08
    endloop
  endfacet
  facet normal  0.000000e+00  1.000000e+00  0.000000e+00
    outer loop
      vertex   7.619977e-03  5.265996e-02  1.025200e-08
      vertex   3.822900e-01  5.265996e-02  9.999974e-04
      vertex   3.949500e-01  5.265996e-02  9.999974e-04
    endloop
  endfacet
  facet normal  0.000000e+00  1.000000e+00  0.000000e+00
    outer loop
      vertex   7.619977e-03  5.265996e-02  1.025200e-08
      vertex   3.949500e-01  5.265996e-02  9.999974e-04
      vertex   7.696200e-01  5.265996e-02  1.025200e-08
    endloop
  endfacet
  facet normal  0.000000e+00  1.000000e+00  0.000000e+00
    outer loop
      vertex   7.696200e-01  5.265996e-02  1.025200e-08
      vertex   3.949500e-01  5.265996e-02  9.999974e-04
      vertex   7.316200e-01  5.265996e-02  9.999974e-04
    endloop
  endfacet
  facet normal  0.000000e+00  1.000000e+00 -0.000000e+00
    outer loop
      vertex   7.696200e-01  5.265996e-02  1.025200e-08
      vertex   7.316200e-01  5.265996e-02  9.999974e-04
      vertex   7.696200e-01  5.265996e-02  9.999974e-04
    endloop
  endfacet
  facet normal  0.000000e+00  0.000000e+00 -1.000000e+00
    outer loop
      vertex   7.619977e-03  1.480660e+00  1.025200e-08
      vertex   7.696200e-01  1.480660e+00  1.025200e-08
      vertex   7.619977e-03  1.442660e+00  1.025200e-08
    endloop
  endfacet
  facet normal  0.000000e+00  0.000000e+00 -1.000000e+00
    outer loop
      vertex   7.619977e-03  1.442660e+00  1.025200e-08
      vertex   7.696200e-01  1.480660e+00  1.025200e-08
      vertex   7.696200e-01  1.442660e+00  1.025200e-08
    endloop
  endfacet
  facet normal -0.000000e+00  0.000000e+00  1.000000e+00
    outer loop
      vertex   7.619977e-03  5.265996e-02  3.920000e-01
      vertex   7.619977e-03  1.465996e-02  3.920000e-01
      vertex   7.696200e-01  5.265996e-02  3.920000e-01
    endloop
  endfacet
  facet normal  0.000000e+00  0.000000e+00  1.000000e+00
    outer loop
      vertex   7.696200e-01  5.265996e-02  3.920000e-01
      vertex   7.619977e-03  1.465996e-02  3.920000e-01
      vertex   7.696200e-01  1.465996e-02  3.920000e-01
    endloop
  endfacet
  facet normal  0.000000e+00  0.000000e+00  1.000000e+00
    outer loop
      vertex   3.949500e-01  1.442660e+00  3.910000e-01
      vertex   3.822900e-01  1.442660e+00  3.910000e-01
      vertex   3.949500e-01  1.103912e+00  3.910000e-01
    endloop
  endfacet
  facet normal  0.000000e+00  0.000000e+00  1.000000e+00
    outer loop
      vertex   3.949500e-01  1.103912e+00  3.910000e-01
      vertex   3.822900e-01  1.442660e+00  3.910000e-01
      vertex   3.822900e-01  1.103912e+00  3.910000e-01
    endloop
  endfacet
  facet normal  0.000000e+00  0.000000e+00  1.000000e+00
    outer loop
      vertex   7.619977e-03  1.442660e+00  3.910000e-01
      vertex   7.619977e-03  5.265996e-02  3.910000e-01
      vertex   4.562002e-02  3.906600e-01  3.910000e-01
    endloop
  endfacet
  facet normal  0.000000e+00  0.000000e+00  1.000000e+00
    outer loop
      vertex   4.562002e-02  3.906600e-01  3.910000e-01
      vertex   7.619977e-03  5.265996e-02  3.910000e-01
      vertex   4.562002e-02  5.265996e-02  3.910000e-01
    endloop
  endfacet
  facet normal  0.000000e+00  0.000000e+00  1.000000e+00
    outer loop
      vertex   3.822900e-01  5.265996e-02  3.910000e-01
      vertex   3.949500e-01  5.265996e-02  3.910000e-01
      vertex   3.822900e-01  3.906600e-01  3.910000e-01
    endloop
  endfacet
  facet normal -0.000000e+00  0.000000e+00  1.000000e+00
    outer loop
      vertex   3.822900e-01  3.906600e-01  3.910000e-01
      vertex   3.949500e-01  5.265996e-02  3.910000e-01
      vertex   3.949500e-01  3.906600e-01  3.910000e-01
    endloop
  endfacet
  facet normal -0.000000e+00  0.000000e+00  1.000000e+00
    outer loop
      vertex   3.822900e-01  7.413200e-01  3.910000e-01
      vertex   3.822900e-01  4.033200e-01  3.910000e-01
      vertex   3.949500e-01  7.413200e-01  3.910000e-01
    endloop
  endfacet
  facet normal  0.000000e+00  0.000000e+00  1.000000e+00
    outer loop
      vertex   3.949500e-01  7.413200e-01  3.910000e-01
      vertex   3.822900e-01  4.033200e-01  3.910000e-01
      vertex   3.949500e-01  4.033200e-01  3.910000e-01
    endloop
  endfacet
  facet normal  0.000000e+00  0.000000e+00  1.000000e+00
    outer loop
      vertex   7.316200e-01  5.265996e-02  3.910000e-01
      vertex   7.696200e-01  5.265996e-02  3.910000e-01
      vertex   7.316200e-01  3.906600e-01  3.910000e-01
    endloop
  endfacet
  facet normal -0.000000e+00  0.000000e+00  1.000000e+00
    outer loop
      vertex   7.316200e-01  3.906600e-01  3.910000e-01
      vertex   7.696200e-01  5.265996e-02  3.910000e-01
      vertex   7.696200e-01  1.442660e+00  3.910000e-01
    endloop
  endfacet
  facet normal  0.000000e+00 -0.000000e+00  1.000000e+00
    outer loop
      vertex   4.562002e-02  1.103912e+00  3.910000e-01
      vertex   4.562002e-02  1.442660e+00  3.910000e-01
      vertex   7.619977e-03  1.442660e+00  3.910000e-01
    endloop
  endfacet
  facet normal  0.000000e+00  0.000000e+00  1.000000e+00
    outer loop
      vertex   4.562002e-02  7.413200e-01  3.910000e-01
      vertex   7.619977e-03  1.442660e+00  3.910000e-01
      vertex   4.562002e-02  4.033200e-01  3.910000e-01
    endloop
  endfacet
  facet normal  0.000000e+00  0.000000e+00  1.000000e+00
    outer loop
      vertex   4.562002e-02  4.033200e-01  3.910000e-01
      vertex   7.619977e-03  1.442660e+00  3.910000e-01
      vertex   4.562002e-02  3.906600e-01  3.910000e-01
    endloop
  endfacet
  facet normal -0.000000e+00  0.000000e+00  1.000000e+00
    outer loop
      vertex   4.562002e-02  4.033200e-01  3.910000e-01
      vertex   4.562002e-02  3.906600e-01  3.910000e-01
      vertex   3.822900e-01  4.033200e-01  3.910000e-01
    endloop
  endfacet
  facet normal  0.000000e+00  0.000000e+00  1.000000e+00
    outer loop
      vertex   3.822900e-01  4.033200e-01  3.910000e-01
      vertex   4.562002e-02  3.906600e-01  3.910000e-01
      vertex   3.822900e-01  3.906600e-01  3.910000e-01
    endloop
  endfacet
  facet normal -0.000000e+00  0.000000e+00  1.000000e+00
    outer loop
      vertex   3.822900e-01  4.033200e-01  3.910000e-01
      vertex   3.822900e-01  3.906600e-01  3.910000e-01
      vertex   3.949500e-01  4.033200e-01  3.910000e-01
    endloop
  endfacet
  facet normal  0.000000e+00  0.000000e+00  1.000000e+00
    outer loop
      vertex   3.949500e-01  4.033200e-01  3.910000e-01
      vertex   3.822900e-01  3.906600e-01  3.910000e-01
      vertex   3.949500e-01  3.906600e-01  3.910000e-01
    endloop
  endfacet
  facet normal -0.000000e+00  0.000000e+00  1.000000e+00
    outer loop
      vertex   3.949500e-01  4.033200e-01  3.910000e-01
      vertex   3.949500e-01  3.906600e-01  3.910000e-01
      vertex   7.316200e-01  4.033200e-01  3.910000e-01
    endloop
  endfacet
  facet normal -0.000000e+00  0.000000e+00  1.000000e+00
    outer loop
      vertex   3.822900e-01  1.091252e+00  3.910000e-01
      vertex   3.822900e-01  7.539899e-01  3.910000e-01
      vertex   3.949500e-01  1.091252e+00  3.910000e-01
    endloop
  endfacet
  facet normal  0.000000e+00  0.000000e+00  1.000000e+00
    outer loop
      vertex   3.949500e-01  1.091252e+00  3.910000e-01
      vertex   3.822900e-01  7.539899e-01  3.910000e-01
      vertex   3.949500e-01  7.539899e-01  3.910000e-01
    endloop
  endfacet
  facet normal  0.000000e+00  0.000000e+00  1.000000e+00
    outer loop
      vertex   7.696200e-01  1.442660e+00  3.910000e-01
      vertex   7.316200e-01  1.442660e+00  3.910000e-01
      vertex   7.316200e-01  1.103912e+00  3.910000e-01
    endloop
  endfacet
  facet normal  0.000000e+00  0.000000e+00  1.000000e+00
    outer loop
      vertex   7.316200e-01  7.539899e-01  3.910000e-01
      vertex   7.696200e-01  1.442660e+00  3.910000e-01
      vertex   7.316200e-01  1.091252e+00  3.910000e-01
    endloop
  endfacet
  facet normal  0.000000e+00  0.000000e+00  1.000000e+00
    outer loop
      vertex   7.316200e-01  1.091252e+00  3.910000e-01
      vertex   7.696200e-01  1.442660e+00  3.910000e-01
      vertex   7.316200e-01  1.103912e+00  3.910000e-01
    endloop
  endfacet
  facet normal  0.000000e+00 -0.000000e+00  1.000000e+00
    outer loop
      vertex   7.316200e-01  1.091252e+00  3.910000e-01
      vertex   7.316200e-01  1.103912e+00  3.910000e-01
      vertex   3.949500e-01  1.091252e+00  3.910000e-01
    endloop
  endfacet
  facet normal  0.000000e+00  0.000000e+00  1.000000e+00
    outer loop
      vertex   3.949500e-01  1.091252e+00  3.910000e-01
      vertex   7.316200e-01  1.103912e+00  3.910000e-01
      vertex   3.949500e-01  1.103912e+00  3.910000e-01
    endloop
  endfacet
  facet normal  0.000000e+00 -0.000000e+00  1.000000e+00
    outer loop
      vertex   3.949500e-01  1.091252e+00  3.910000e-01
      vertex   3.949500e-01  1.103912e+00  3.910000e-01
      vertex   3.822900e-01  1.091252e+00  3.910000e-01
    endloop
  endfacet
  facet normal  0.000000e+00  0.000000e+00  1.000000e+00
    outer loop
      vertex   3.822900e-01  1.091252e+00  3.910000e-01
      vertex   3.949500e-01  1.103912e+00  3.910000e-01
      vertex   3.822900e-01  1.103912e+00  3.910000e-01
    endloop
  endfacet
  facet normal  0.000000e+00 -0.000000e+00  1.000000e+00
    outer loop
      vertex   3.822900e-01  1.091252e+00  3.910000e-01
      vertex   3.822900e-01  1.103912e+00  3.910000e-01
      vertex   4.562002e-02  1.091252e+00  3.910000e-01
    endloop
  endfacet
  facet normal  0.000000e+00  0.000000e+00  1.000000e+00
    outer loop
      vertex   3.822900e-01  1.103912e+00  3.910000e-01
      vertex   4.562002e-02  1.103912e+00  3.910000e-01
      vertex   4.562002e-02  1.091252e+00  3.910000e-01
    endloop
  endfacet
  facet normal  0.000000e+00 -0.000000e+00  1.000000e+00
    outer loop
      vertex   4.562002e-02  1.091252e+00  3.910000e-01
      vertex   4.562002e-02  1.103912e+00  3.910000e-01
      vertex   7.619977e-03  1.442660e+00  3.910000e-01
    endloop
  endfacet
  facet normal  0.000000e+00  0.000000e+00  1.000000e+00
    outer loop
      vertex   4.562002e-02  1.091252e+00  3.910000e-01
      vertex   7.619977e-03  1.442660e+00  3.910000e-01
      vertex   4.562002e-02  7.539899e-01  3.910000e-01
    endloop
  endfacet
  facet normal  0.000000e+00  0.000000e+00  1.000000e+00
    outer loop
      vertex   4.562002e-02  7.539899e-01  3.910000e-01
      vertex   7.619977e-03  1.442660e+00  3.910000e-01
      vertex   4.562002e-02  7.413200e-01  3.910000e-01
    endloop
  endfacet
  facet normal -0.000000e+00  0.000000e+00  1.000000e+00
    outer loop
      vertex   4.562002e-02  7.539899e-01  3.910000e-01
      vertex   4.562002e-02  7.413200e-01  3.910000e-01
      vertex   3.822900e-01  7.539899e-01  3.910000e-01
    endloop
  endfacet
  facet normal  0.000000e+00  0.000000e+00  1.000000e+00
    outer loop
      vertex   3.822900e-01  7.539899e-01  3.910000e-01
      vertex   4.562002e-02  7.413200e-01  3.910000e-01
      vertex   3.822900e-01  7.413200e-01  3.910000e-01
    endloop
  endfacet
  facet normal -0.000000e+00  0.000000e+00  1.000000e+00
    outer loop
      vertex   3.822900e-01  7.539899e-01  3.910000e-01
      vertex   3.822900e-01  7.413200e-01  3.910000e-01
      vertex   3.949500e-01  7.539899e-01  3.910000e-01
    endloop
  endfacet
  facet normal  0.000000e+00  0.000000e+00  1.000000e+00
    outer loop
      vertex   3.949500e-01  7.539899e-01  3.910000e-01
      vertex   3.822900e-01  7.413200e-01  3.910000e-01
      vertex   3.949500e-01  7.413200e-01  3.910000e-01
    endloop
  endfacet
  facet normal -0.000000e+00  0.000000e+00  1.000000e+00
    outer loop
      vertex   3.949500e-01  7.539899e-01  3.910000e-01
      vertex   3.949500e-01  7.413200e-01  3.910000e-01
      vertex   7.316200e-01  7.539899e-01  3.910000e-01
    endloop
  endfacet
  facet normal  0.000000e+00  0.000000e+00  1.000000e+00
    outer loop
      vertex   7.316200e-01  7.539899e-01  3.910000e-01
      vertex   3.949500e-01  7.413200e-01  3.910000e-01
      vertex   7.316200e-01  7.413200e-01  3.910000e-01
    endloop
  endfacet
  facet normal -0.000000e+00  0.000000e+00  1.000000e+00
    outer loop
      vertex   7.316200e-01  7.539899e-01  3.910000e-01
      vertex   7.316200e-01  7.413200e-01  3.910000e-01
      vertex   7.696200e-01  1.442660e+00  3.910000e-01
    endloop
  endfacet
  facet normal  0.000000e+00  0.000000e+00  1.000000e+00
    outer loop
      vertex   7.696200e-01  1.442660e+00  3.910000e-01
      vertex   7.316200e-01  7.413200e-01  3.910000e-01
      vertex   7.316200e-01  4.033200e-01  3.910000e-01
    endloop
  endfacet
  facet normal  0.000000e+00  0.000000e+00  1.000000e+00
    outer loop
      vertex   7.696200e-01  1.442660e+00  3.910000e-01
      vertex   7.316200e-01  4.033200e-01  3.910000e-01
      vertex   7.316200e-01  3.906600e-01  3.910000e-01
    endloop
  endfacet
  facet normal  0.000000e+00 -0.000000e+00  1.000000e+00
    outer loop
      vertex   7.316200e-01  3.906600e-01  3.910000e-01
      vertex   7.316200e-01  4.033200e-01  3.910000e-01
      vertex   3.949500e-01  3.906600e-01  3.910000e-01
    endloop
  endfacet
  facet normal  0.000000e+00 -0.000000e+00 -1.000000e+00
    outer loop
      vertex   4.562002e-02  3.906600e-01  9.999974e-04
      vertex   4.562002e-02  5.265996e-02  9.999974e-04
      vertex   7.619977e-03  5.265996e-02  9.999974e-04
    endloop
  endfacet
  facet normal  0.000000e+00  0.000000e+00 -1.000000e+00
    outer loop
      vertex   7.316200e-01  7.539899e-01  9.999974e-04
      vertex   7.316200e-01  1.091252e+00  9.999974e-04
      vertex   7.696200e-01  1.442660e+00  9.999974e-04
    endloop
  endfacet
  facet normal  0.000000e+00  0.000000e+00 -1.000000e+00
    outer loop
      vertex   3.822900e-01  1.442660e+00  9.999974e-04
      vertex   3.949500e-01  1.442660e+00  9.999974e-04
      vertex   3.822900e-01  1.103912e+00  9.999974e-04
    endloop
  endfacet
  facet normal  0.000000e+00  0.000000e+00 -1.000000e+00
    outer loop
      vertex   3.822900e-01  1.103912e+00  9.999974e-04
      vertex   3.949500e-01  1.442660e+00  9.999974e-04
      vertex   3.949500e-01  1.103912e+00  9.999974e-04
    endloop
  endfacet
  facet normal  0.000000e+00  0.000000e+00 -1.000000e+00
    outer loop
      vertex   3.949500e-01  5.265996e-02  9.999974e-04
      vertex   3.822900e-01  5.265996e-02  9.999974e-04
      vertex   3.949500e-01  3.906600e-01  9.999974e-04
    endloop
  endfacet
  facet normal -0.000000e+00  0.000000e+00 -1.000000e+00
    outer loop
      vertex   3.949500e-01  3.906600e-01  9.999974e-04
      vertex   3.822900e-01  5.265996e-02  9.999974e-04
      vertex   3.822900e-01  3.906600e-01  9.999974e-04
    endloop
  endfacet
  facet normal  0.000000e+00  0.000000e+00 -1.000000e+00
    outer loop
      vertex   7.696200e-01  5.265996e-02  9.999974e-04
      vertex   7.316200e-01  5.265996e-02  9.999974e-04
      vertex   7.316200e-01  3.906600e-01  9.999974e-04
    endloop
  endfacet
  facet normal  0.000000e+00  0.000000e+00 -1.000000e+00
    outer loop
      vertex   7.316200e-01  1.442660e+00  9.999974e-04
      vertex   7.696200e-01  1.442660e+00  9.999974e-04
      vertex   7.316200e-01  1.103912e+00  9.999974e-04
    endloop
  endfacet
  facet normal  0.000000e+00  0.000000e+00 -1.000000e+00
    outer loop
      vertex   7.316200e-01  1.103912e+00  9.999974e-04
      vertex   7.696200e-01  1.442660e+00  9.999974e-04
      vertex   7.316200e-01  1.091252e+00  9.999974e-04
    endloop
  endfacet
  facet normal -0.000000e+00 -0.000000e+00 -1.000000e+00
    outer loop
      vertex   7.316200e-01  1.103912e+00  9.999974e-04
      vertex   7.316200e-01  1.091252e+00  9.999974e-04
      vertex   3.949500e-01  1.103912e+00  9.999974e-04
    endloop
  endfacet
  facet normal  0.000000e+00  0.000000e+00 -1.000000e+00
    outer loop
      vertex   3.949500e-01  1.103912e+00  9.999974e-04
      vertex   7.316200e-01  1.091252e+00  9.999974e-04
      vertex   3.949500e-01  1.091252e+00  9.999974e-04
    endloop
  endfacet
  facet normal -0.000000e+00 -0.000000e+00 -1.000000e+00
    outer loop
      vertex   3.949500e-01  1.103912e+00  9.999974e-04
      vertex   3.949500e-01  1.091252e+00  9.999974e-04
      vertex   3.822900e-01  1.103912e+00  9.999974e-04
    endloop
  endfacet
  facet normal  0.000000e+00  0.000000e+00 -1.000000e+00
    outer loop
      vertex   3.822900e-01  7.539899e-01  9.999974e-04
      vertex   3.822900e-01  1.091252e+00  9.999974e-04
      vertex   3.949500e-01  7.539899e-01  9.999974e-04
    endloop
  endfacet
  facet normal  0.000000e+00  0.000000e+00 -1.000000e+00
    outer loop
      vertex   7.619977e-03  1.442660e+00  9.999974e-04
      vertex   4.562002e-02  1.442660e+00  9.999974e-04
      vertex   4.562002e-02  1.103912e+00  9.999974e-04
    endloop
  endfacet
  facet normal -0.000000e+00 -0.000000e+00 -1.000000e+00
    outer loop
      vertex   3.949500e-01  1.091252e+00  9.999974e-04
      vertex   3.949500e-01  7.539899e-01  9.999974e-04
      vertex   3.822900e-01  1.103912e+00  9.999974e-04
    endloop
  endfacet
  facet normal  0.000000e+00  0.000000e+00 -1.000000e+00
    outer loop
      vertex   3.822900e-01  1.103912e+00  9.999974e-04
      vertex   3.949500e-01  7.539899e-01  9.999974e-04
      vertex   3.822900e-01  1.091252e+00  9.999974e-04
    endloop
  endfacet
  facet normal -0.000000e+00 -0.000000e+00 -1.000000e+00
    outer loop
      vertex   3.822900e-01  1.103912e+00  9.999974e-04
      vertex   3.822900e-01  1.091252e+00  9.999974e-04
      vertex   4.562002e-02  1.103912e+00  9.999974e-04
    endloop
  endfacet
  facet normal  0.000000e+00  0.000000e+00 -1.000000e+00
    outer loop
      vertex   4.562002e-02  1.103912e+00  9.999974e-04
      vertex   3.822900e-01  1.091252e+00  9.999974e-04
      vertex   4.562002e-02  1.091252e+00  9.999974e-04
    endloop
  endfacet
  facet normal -0.000000e+00 -0.000000e+00 -1.000000e+00
    outer loop
      vertex   4.562002e-02  1.103912e+00  9.999974e-04
      vertex   4.562002e-02  1.091252e+00  9.999974e-04
      vertex   7.619977e-03  1.442660e+00  9.999974e-04
    endloop
  endfacet
  facet normal  0.000000e+00  0.000000e+00 -1.000000e+00
    outer loop
      vertex   7.619977e-03  1.442660e+00  9.999974e-04
      vertex   4.562002e-02  1.091252e+00  9.999974e-04
      vertex   4.562002e-02  7.539899e-01  9.999974e-04
    endloop
  endfacet
  facet normal  0.000000e+00  0.000000e+00 -1.000000e+00
    outer loop
      vertex   7.619977e-03  1.442660e+00  9.999974e-04
      vertex   4.562002e-02  7.539899e-01  9.999974e-04
      vertex   7.619977e-03  5.265996e-02  9.999974e-04
    endloop
  endfacet
  facet normal -0.000000e+00 -0.000000e+00 -1.000000e+00
    outer loop
      vertex   3.949500e-01  7.413200e-01  9.999974e-04
      vertex   3.949500e-01  4.033200e-01  9.999974e-04
      vertex   3.822900e-01  7.413200e-01  9.999974e-04
    endloop
  endfacet
  facet normal  0.000000e+00  0.000000e+00 -1.000000e+00
    outer loop
      vertex   3.822900e-01  7.413200e-01  9.999974e-04
      vertex   3.949500e-01  4.033200e-01  9.999974e-04
      vertex   3.822900e-01  4.033200e-01  9.999974e-04
    endloop
  endfacet
  facet normal  0.000000e+00  0.000000e+00 -1.000000e+00
    outer loop
      vertex   7.316200e-01  7.413200e-01  9.999974e-04
      vertex   7.696200e-01  5.265996e-02  9.999974e-04
      vertex   7.316200e-01  4.033200e-01  9.999974e-04
    endloop
  endfacet
  facet normal  0.000000e+00  0.000000e+00 -1.000000e+00
    outer loop
      vertex   7.316200e-01  4.033200e-01  9.999974e-04
      vertex   7.696200e-01  5.265996e-02  9.999974e-04
      vertex   7.316200e-01  3.906600e-01  9.999974e-04
    endloop
  endfacet
  facet normal -0.000000e+00 -0.000000e+00 -1.000000e+00
    outer loop
      vertex   7.316200e-01  4.033200e-01  9.999974e-04
      vertex   7.316200e-01  3.906600e-01  9.999974e-04
      vertex   3.949500e-01  4.033200e-01  9.999974e-04
    endloop
  endfacet
  facet normal  0.000000e+00  0.000000e+00 -1.000000e+00
    outer loop
      vertex   3.949500e-01  4.033200e-01  9.999974e-04
      vertex   7.316200e-01  3.906600e-01  9.999974e-04
      vertex   3.949500e-01  3.906600e-01  9.999974e-04
    endloop
  endfacet
  facet normal -0.000000e+00 -0.000000e+00 -1.000000e+00
    outer loop
      vertex   3.949500e-01  4.033200e-01  9.999974e-04
      vertex   3.949500e-01  3.906600e-01  9.999974e-04
      vertex   3.822900e-01  4.033200e-01  9.999974e-04
    endloop
  endfacet
  facet normal  0.000000e+00  0.000000e+00 -1.000000e+00
    outer loop
      vertex   3.822900e-01  4.033200e-01  9.999974e-04
      vertex   3.949500e-01  3.906600e-01  9.999974e-04
      vertex   3.822900e-01  3.906600e-01  9.999974e-04
    endloop
  endfacet
  facet normal -0.000000e+00 -0.000000e+00 -1.000000e+00
    outer loop
      vertex   3.822900e-01  4.033200e-01  9.999974e-04
      vertex   3.822900e-01  3.906600e-01  9.999974e-04
      vertex   4.562002e-02  4.033200e-01  9.999974e-04
    endloop
  endfacet
  facet normal  0.000000e+00  0.000000e+00 -1.000000e+00
    outer loop
      vertex   3.822900e-01  3.906600e-01  9.999974e-04
      vertex   4.562002e-02  3.906600e-01  9.999974e-04
      vertex   4.562002e-02  4.033200e-01  9.999974e-04
    endloop
  endfacet
  facet normal  0.000000e+00 -0.000000e+00 -1.000000e+00
    outer loop
      vertex   4.562002e-02  4.033200e-01  9.999974e-04
      vertex   4.562002e-02  3.906600e-01  9.999974e-04
      vertex   7.619977e-03  5.265996e-02  9.999974e-04
    endloop
  endfacet
  facet normal -0.000000e+00  0.000000e+00 -1.000000e+00
    outer loop
      vertex   4.562002e-02  4.033200e-01  9.999974e-04
      vertex   7.619977e-03  5.265996e-02  9.999974e-04
      vertex   4.562002e-02  7.413200e-01  9.999974e-04
    endloop
  endfacet
  facet normal -0.000000e+00  0.000000e+00 -1.000000e+00
    outer loop
      vertex   4.562002e-02  7.413200e-01  9.999974e-04
      vertex   7.619977e-03  5.265996e-02  9.999974e-04
      vertex   4.562002e-02  7.539899e-01  9.999974e-04
    endloop
  endfacet
  facet normal  0.000000e+00  0.000000e+00 -1.000000e+00
    outer loop
      vertex   4.562002e-02  7.413200e-01  9.999974e-04
      vertex   4.562002e-02  7.539899e-01  9.999974e-04
      vertex   3.822900e-01  7.413200e-01  9.999974e-04
    endloop
  endfacet
  facet normal  0.000000e+00  0.000000e+00 -1.000000e+00
    outer loop
      vertex   3.822900e-01  7.413200e-01  9.999974e-04
      vertex   4.562002e-02  7.539899e-01  9.999974e-04
      vertex   3.822900e-01  7.539899e-01  9.999974e-04
    endloop
  endfacet
  facet normal  0.000000e+00  0.000000e+00 -1.000000e+00
    outer loop
      vertex   3.822900e-01  7.413200e-01  9.999974e-04
      vertex   3.822900e-01  7.539899e-01  9.999974e-04
      vertex   3.949500e-01  7.413200e-01  9.999974e-04
    endloop
  endfacet
  facet normal  0.000000e+00  0.000000e+00 -1.000000e+00
    outer loop
      vertex   3.949500e-01  7.413200e-01  9.999974e-04
      vertex   3.822900e-01  7.539899e-01  9.999974e-04
      vertex   3.949500e-01  7.539899e-01  9.999974e-04
    endloop
  endfacet
  facet normal  0.000000e+00  0.000000e+00 -1.000000e+00
    outer loop
      vertex   3.949500e-01  7.413200e-01  9.999974e-04
      vertex   3.949500e-01  7.539899e-01  9.999974e-04
      vertex   7.316200e-01  7.413200e-01  9.999974e-04
    endloop
  endfacet
  facet normal  0.000000e+00  0.000000e+00 -1.000000e+00
    outer loop
      vertex   7.316200e-01  7.413200e-01  9.999974e-04
      vertex   3.949500e-01  7.539899e-01  9.999974e-04
      vertex   7.316200e-01  7.539899e-01  9.999974e-04
    endloop
  endfacet
  facet normal  0.000000e+00  0.000000e+00 -1.000000e+00
    outer loop
      vertex   7.316200e-01  7.413200e-01  9.999974e-04
      vertex   7.316200e-01  7.539899e-01  9.999974e-04
      vertex   7.696200e-01  5.265996e-02  9.999974e-04
    endloop
  endfacet
  facet normal  0.000000e+00  0.000000e+00 -1.000000e+00
    outer loop
      vertex   7.696200e-01  5.265996e-02  9.999974e-04
      vertex   7.316200e-01  7.539899e-01  9.999974e-04
      vertex   7.696200e-01  1.442660e+00  9.999974e-04
    endloop
  endfacet
endsolid vcg
